<mxfile host="65bd71144e">
    <diagram id="0KxHg8w-oOYpywOhIbO6" name="Page-1">
        <mxGraphModel dx="1552" dy="582" grid="1" gridSize="10" guides="1" tooltips="1" connect="1" arrows="1" fold="1" page="1" pageScale="1" pageWidth="850" pageHeight="1100" background="#ffffff" math="0" shadow="0">
            <root>
                <mxCell id="0"/>
                <mxCell id="1" parent="0"/>
                <mxCell id="2" value="&lt;font face=&quot;Georgia&quot; style=&quot;font-size: 26px;&quot;&gt;FULLSTACK BANKING APP&lt;/font&gt;" style="text;html=1;strokeColor=none;fillColor=none;align=center;verticalAlign=middle;whiteSpace=wrap;rounded=0;" parent="1" vertex="1">
                    <mxGeometry x="210" y="70" width="460" height="30" as="geometry"/>
                </mxCell>
                <mxCell id="12" value="User : TokenableBaseEntity" style="swimlane;fontStyle=1;align=center;verticalAlign=top;childLayout=stackLayout;horizontal=1;startSize=26;horizontalStack=0;resizeParent=1;resizeParentMax=0;resizeLast=0;collapsible=1;marginBottom=0;fontFamily=Georgia;fontSize=14;" parent="1" vertex="1">
                    <mxGeometry x="-120" y="425" width="320" height="250" as="geometry"/>
                </mxCell>
                <mxCell id="13" value="+ fullname : String&#10;+ password : String&#10;+ email : String&#10;+ netSalary : Integer&#10;+ Accounts : List&lt;Account&gt;&#10;+ Credits : List&lt;Credit&gt;&#10;+ responsible : Employee" style="text;strokeColor=none;fillColor=none;align=left;verticalAlign=top;spacingLeft=4;spacingRight=4;overflow=hidden;rotatable=0;points=[[0,0.5],[1,0.5]];portConstraint=eastwest;fontFamily=Georgia;fontSize=14;" parent="12" vertex="1">
                    <mxGeometry y="26" width="320" height="134" as="geometry"/>
                </mxCell>
                <mxCell id="14" value="" style="line;strokeWidth=1;fillColor=none;align=left;verticalAlign=middle;spacingTop=-1;spacingLeft=3;spacingRight=3;rotatable=0;labelPosition=right;points=[];portConstraint=eastwest;strokeColor=inherit;fontFamily=Georgia;fontSize=14;" parent="12" vertex="1">
                    <mxGeometry y="160" width="320" height="8" as="geometry"/>
                </mxCell>
                <mxCell id="15" value="+ depositMoney (int accountId, double money)&#10;+ withdrawMoney (int accountId, double money)&#10;+ enableSaving (int accountId)&#10;+ payCredits (int accountId)" style="text;strokeColor=none;fillColor=none;align=left;verticalAlign=top;spacingLeft=4;spacingRight=4;overflow=hidden;rotatable=0;points=[[0,0.5],[1,0.5]];portConstraint=eastwest;fontFamily=Georgia;fontSize=14;" parent="12" vertex="1">
                    <mxGeometry y="168" width="320" height="82" as="geometry"/>
                </mxCell>
                <mxCell id="24" style="edgeStyle=none;html=1;entryX=0.5;entryY=0;entryDx=0;entryDy=0;fontFamily=Georgia;fontSize=14;" parent="1" source="16" target="20" edge="1">
                    <mxGeometry relative="1" as="geometry"/>
                </mxCell>
                <mxCell id="47" style="edgeStyle=none;html=1;exitX=0.25;exitY=1;exitDx=0;exitDy=0;fontFamily=Georgia;fontSize=14;entryX=0.9;entryY=0;entryDx=0;entryDy=0;entryPerimeter=0;" parent="1" source="16" target="25" edge="1">
                    <mxGeometry relative="1" as="geometry">
                        <mxPoint x="340" y="270" as="targetPoint"/>
                    </mxGeometry>
                </mxCell>
                <mxCell id="16" value="BaseEntity" style="swimlane;fontStyle=1;align=center;verticalAlign=top;childLayout=stackLayout;horizontal=1;startSize=26;horizontalStack=0;resizeParent=1;resizeParentMax=0;resizeLast=0;collapsible=1;marginBottom=0;fontFamily=Georgia;fontSize=14;" parent="1" vertex="1">
                    <mxGeometry x="330" y="150" width="220" height="50" as="geometry"/>
                </mxCell>
                <mxCell id="20" value="TokenableBaseEntity : BaseEntity" style="swimlane;fontStyle=1;align=center;verticalAlign=top;childLayout=stackLayout;horizontal=1;startSize=26;horizontalStack=0;resizeParent=1;resizeParentMax=0;resizeLast=0;collapsible=1;marginBottom=0;fontFamily=Georgia;fontSize=14;" parent="1" vertex="1">
                    <mxGeometry x="450" y="275" width="240" height="70" as="geometry"/>
                </mxCell>
                <mxCell id="21" value="+ tokenUsername: String&#10;+ tokenPassword : String" style="text;strokeColor=none;fillColor=none;align=left;verticalAlign=top;spacingLeft=4;spacingRight=4;overflow=hidden;rotatable=0;points=[[0,0.5],[1,0.5]];portConstraint=eastwest;fontFamily=Georgia;fontSize=14;" parent="20" vertex="1">
                    <mxGeometry y="26" width="240" height="44" as="geometry"/>
                </mxCell>
                <mxCell id="25" value="Account : BaseEntity" style="swimlane;fontStyle=0;childLayout=stackLayout;horizontal=1;startSize=26;fillColor=none;horizontalStack=0;resizeParent=1;resizeParentMax=0;resizeLast=0;collapsible=1;marginBottom=0;fontFamily=Georgia;fontSize=14;" parent="1" vertex="1">
                    <mxGeometry x="160" y="280" width="200" height="60" as="geometry"/>
                </mxCell>
                <mxCell id="26" value="+ balance : Integer" style="text;strokeColor=none;fillColor=none;align=left;verticalAlign=top;spacingLeft=4;spacingRight=4;overflow=hidden;rotatable=0;points=[[0,0.5],[1,0.5]];portConstraint=eastwest;fontFamily=Georgia;fontSize=14;" parent="25" vertex="1">
                    <mxGeometry y="26" width="200" height="34" as="geometry"/>
                </mxCell>
                <mxCell id="29" value="savingAccount : Account" style="swimlane;fontStyle=1;align=center;verticalAlign=top;childLayout=stackLayout;horizontal=1;startSize=26;horizontalStack=0;resizeParent=1;resizeParentMax=0;resizeLast=0;collapsible=1;marginBottom=0;fontFamily=Georgia;fontSize=14;" parent="1" vertex="1">
                    <mxGeometry x="120" y="730" width="260" height="190" as="geometry"/>
                </mxCell>
                <mxCell id="30" value="+ balance : Double&#10;+ enableInterest : Boolean&#10;+ interestRate : Double" style="text;strokeColor=none;fillColor=none;align=left;verticalAlign=top;spacingLeft=4;spacingRight=4;overflow=hidden;rotatable=0;points=[[0,0.5],[1,0.5]];portConstraint=eastwest;fontFamily=Georgia;fontSize=14;" parent="29" vertex="1">
                    <mxGeometry y="26" width="260" height="74" as="geometry"/>
                </mxCell>
                <mxCell id="31" value="" style="line;strokeWidth=1;fillColor=none;align=left;verticalAlign=middle;spacingTop=-1;spacingLeft=3;spacingRight=3;rotatable=0;labelPosition=right;points=[];portConstraint=eastwest;strokeColor=inherit;fontFamily=Georgia;fontSize=14;" parent="29" vertex="1">
                    <mxGeometry y="100" width="260" height="8" as="geometry"/>
                </mxCell>
                <mxCell id="32" value="+ depositMoney(int money)&#10;+ withdrawMoney (double money)&#10;+ toggleEnableInterst()&#10;+ giveMonthlyInterest()" style="text;strokeColor=none;fillColor=none;align=left;verticalAlign=top;spacingLeft=4;spacingRight=4;overflow=hidden;rotatable=0;points=[[0,0.5],[1,0.5]];portConstraint=eastwest;fontFamily=Georgia;fontSize=14;" parent="29" vertex="1">
                    <mxGeometry y="108" width="260" height="82" as="geometry"/>
                </mxCell>
                <mxCell id="34" value="creditAccount : Account" style="swimlane;fontStyle=1;align=center;verticalAlign=top;childLayout=stackLayout;horizontal=1;startSize=26;horizontalStack=0;resizeParent=1;resizeParentMax=0;resizeLast=0;collapsible=1;marginBottom=0;fontFamily=Georgia;fontSize=14;" parent="1" vertex="1">
                    <mxGeometry x="480" y="735" width="260" height="170" as="geometry"/>
                </mxCell>
                <mxCell id="35" value="+ balance : Double&#10;+ sum : Double&#10;+ monthlyPayment : Double&#10;+ interestRate : Double" style="text;strokeColor=none;fillColor=none;align=left;verticalAlign=top;spacingLeft=4;spacingRight=4;overflow=hidden;rotatable=0;points=[[0,0.5],[1,0.5]];portConstraint=eastwest;fontFamily=Georgia;fontSize=14;" parent="34" vertex="1">
                    <mxGeometry y="26" width="260" height="84" as="geometry"/>
                </mxCell>
                <mxCell id="36" value="" style="line;strokeWidth=1;fillColor=none;align=left;verticalAlign=middle;spacingTop=-1;spacingLeft=3;spacingRight=3;rotatable=0;labelPosition=right;points=[];portConstraint=eastwest;strokeColor=inherit;fontFamily=Georgia;fontSize=14;" parent="34" vertex="1">
                    <mxGeometry y="110" width="260" height="8" as="geometry"/>
                </mxCell>
                <mxCell id="37" value="+ payMonthlyCredit()&#10;+ overdueInterest()" style="text;strokeColor=none;fillColor=none;align=left;verticalAlign=top;spacingLeft=4;spacingRight=4;overflow=hidden;rotatable=0;points=[[0,0.5],[1,0.5]];portConstraint=eastwest;fontFamily=Georgia;fontSize=14;" parent="34" vertex="1">
                    <mxGeometry y="118" width="260" height="52" as="geometry"/>
                </mxCell>
                <mxCell id="38" value="Employee : TokenableBaseEntity" style="swimlane;fontStyle=1;align=center;verticalAlign=top;childLayout=stackLayout;horizontal=1;startSize=26;horizontalStack=0;resizeParent=1;resizeParentMax=0;resizeLast=0;collapsible=1;marginBottom=0;fontFamily=Georgia;fontSize=14;" parent="1" vertex="1">
                    <mxGeometry x="340" y="445" width="320" height="220" as="geometry"/>
                </mxCell>
                <mxCell id="39" value="+ fullname : String&#10;+ password : String&#10;+ email : String&#10;+ netSalary : Integer&#10;+ users : User&lt;Integer&gt;&#10;+ director : Director" style="text;strokeColor=none;fillColor=none;align=left;verticalAlign=top;spacingLeft=4;spacingRight=4;overflow=hidden;rotatable=0;points=[[0,0.5],[1,0.5]];portConstraint=eastwest;fontFamily=Georgia;fontSize=14;" parent="38" vertex="1">
                    <mxGeometry y="26" width="320" height="114" as="geometry"/>
                </mxCell>
                <mxCell id="40" value="" style="line;strokeWidth=1;fillColor=none;align=left;verticalAlign=middle;spacingTop=-1;spacingLeft=3;spacingRight=3;rotatable=0;labelPosition=right;points=[];portConstraint=eastwest;strokeColor=inherit;fontFamily=Georgia;fontSize=14;" parent="38" vertex="1">
                    <mxGeometry y="140" width="320" height="8" as="geometry"/>
                </mxCell>
                <mxCell id="41" value="+ createAccount (User newUser, int accountType)&#10;+ deleteAccount (int accountId)&#10;+ deleteUser (int userId)" style="text;strokeColor=none;fillColor=none;align=left;verticalAlign=top;spacingLeft=4;spacingRight=4;overflow=hidden;rotatable=0;points=[[0,0.5],[1,0.5]];portConstraint=eastwest;fontFamily=Georgia;fontSize=14;" parent="38" vertex="1">
                    <mxGeometry y="148" width="320" height="72" as="geometry"/>
                </mxCell>
                <mxCell id="42" value="Director : TokenableBaseEntity" style="swimlane;fontStyle=1;align=center;verticalAlign=top;childLayout=stackLayout;horizontal=1;startSize=26;horizontalStack=0;resizeParent=1;resizeParentMax=0;resizeLast=0;collapsible=1;marginBottom=0;fontFamily=Georgia;fontSize=14;" parent="1" vertex="1">
                    <mxGeometry x="760" y="445" width="320" height="210" as="geometry"/>
                </mxCell>
                <mxCell id="43" value="+ fullname : String&#10;+ password : String&#10;+ email : String&#10;+ netSalary : Integer&#10;+ employees : List&lt;Employee&gt;" style="text;strokeColor=none;fillColor=none;align=left;verticalAlign=top;spacingLeft=4;spacingRight=4;overflow=hidden;rotatable=0;points=[[0,0.5],[1,0.5]];portConstraint=eastwest;fontFamily=Georgia;fontSize=14;" parent="42" vertex="1">
                    <mxGeometry y="26" width="320" height="104" as="geometry"/>
                </mxCell>
                <mxCell id="44" value="" style="line;strokeWidth=1;fillColor=none;align=left;verticalAlign=middle;spacingTop=-1;spacingLeft=3;spacingRight=3;rotatable=0;labelPosition=right;points=[];portConstraint=eastwest;strokeColor=inherit;fontFamily=Georgia;fontSize=14;" parent="42" vertex="1">
                    <mxGeometry y="130" width="320" height="8" as="geometry"/>
                </mxCell>
                <mxCell id="45" value="+ recruit (Employee newEmployee)&#10;+ dismiss (int employeeId)&#10;+ giveRaise(int employeeId)" style="text;strokeColor=none;fillColor=none;align=left;verticalAlign=top;spacingLeft=4;spacingRight=4;overflow=hidden;rotatable=0;points=[[0,0.5],[1,0.5]];portConstraint=eastwest;fontFamily=Georgia;fontSize=14;" parent="42" vertex="1">
                    <mxGeometry y="138" width="320" height="72" as="geometry"/>
                </mxCell>
                <mxCell id="17" value="+ id: Integer" style="text;strokeColor=none;fillColor=none;align=left;verticalAlign=top;spacingLeft=4;spacingRight=4;overflow=hidden;rotatable=0;points=[[0,0.5],[1,0.5]];portConstraint=eastwest;fontFamily=Georgia;fontSize=14;" parent="1" vertex="1">
                    <mxGeometry x="330" y="176" width="220" height="24" as="geometry"/>
                </mxCell>
            </root>
        </mxGraphModel>
    </diagram>
</mxfile>